<mxfile host="app.diagrams.net" modified="2023-09-20T14:12:55.813Z" agent="Mozilla/5.0 (X11; Linux x86_64) AppleWebKit/537.36 (KHTML, like Gecko) Chrome/112.0.0.0 Safari/537.36" version="21.7.5" etag="K-E1zVRiZVSTR-i-K0w_" type="github">
  <diagram name="Page-1" id="aJPoleq7LqZWeyjLvSiz">
    <mxGraphModel>
      <root>
        <mxCell id="0" />
        <mxCell id="1" parent="0" />
      </root>
    </mxGraphModel>
  </diagram>
</mxfile>
